<mxfile host="app.diagrams.net" modified="2024-01-16T19:49:28.263Z" agent="Mozilla/5.0 (Macintosh; Intel Mac OS X 10_15_7) AppleWebKit/537.36 (KHTML, like Gecko) Chrome/117.0.0.0 Safari/537.36" etag="fdyLJFRmZVivAv27Pm0n" version="22.1.18" type="github">
  <diagram name="Page-1" id="Gmgp5uhwbD2Tw-6dmJXy">
    <mxGraphModel dx="3015" dy="2176" grid="1" gridSize="10" guides="1" tooltips="1" connect="1" arrows="1" fold="1" page="1" pageScale="1" pageWidth="850" pageHeight="1100" background="#ffffff" math="0" shadow="0">
      <root>
        <mxCell id="0" />
        <mxCell id="1" parent="0" />
        <mxCell id="O0CgCwb5rhvd9dTBc7-d-1" value="" style="rounded=0;whiteSpace=wrap;html=1;fillColor=none;strokeColor=#6c8ebf;" parent="1" vertex="1">
          <mxGeometry x="-230" y="-530" width="1470" height="1210" as="geometry" />
        </mxCell>
        <mxCell id="O0CgCwb5rhvd9dTBc7-d-2" value="&lt;font style=&quot;font-size: 20px;&quot;&gt;COSTCO&amp;nbsp;&lt;br&gt;CLACKAMAS&lt;br&gt;&amp;nbsp;WAREHOUSE #97&lt;/font&gt;" style="rounded=0;whiteSpace=wrap;html=1;" parent="1" vertex="1">
          <mxGeometry x="-230" y="-394.5" width="280" height="830" as="geometry" />
        </mxCell>
        <mxCell id="O0CgCwb5rhvd9dTBc7-d-3" value="&lt;font style=&quot;font-size: 20px;&quot;&gt;THE PAD&lt;/font&gt;" style="html=1;verticalLabelPosition=bottom;align=center;labelBackgroundColor=#ffffff;verticalAlign=top;strokeWidth=2;strokeColor=#0080F0;shadow=0;dashed=0;shape=mxgraph.ios7.icons.home;" parent="1" vertex="1">
          <mxGeometry x="-22" y="450" width="62" height="70" as="geometry" />
        </mxCell>
        <mxCell id="O0CgCwb5rhvd9dTBc7-d-5" value="9" style="rounded=0;whiteSpace=wrap;html=1;direction=south;fillColor=#f8cecc;strokeColor=#b85450;fontSize=20;fontStyle=1" parent="1" vertex="1">
          <mxGeometry x="240" y="440" width="25" height="50" as="geometry" />
        </mxCell>
        <mxCell id="O0CgCwb5rhvd9dTBc7-d-33" value="12" style="rounded=0;whiteSpace=wrap;html=1;direction=south;fillColor=#f8cecc;strokeColor=#b85450;fontSize=20;fontStyle=1" parent="1" vertex="1">
          <mxGeometry x="470" y="560" width="25" height="50" as="geometry" />
        </mxCell>
        <mxCell id="O0CgCwb5rhvd9dTBc7-d-34" value="11" style="rounded=0;whiteSpace=wrap;html=1;direction=south;fillColor=#f8cecc;strokeColor=#b85450;fontSize=20;fontStyle=1" parent="1" vertex="1">
          <mxGeometry x="470" y="520" width="25" height="50" as="geometry" />
        </mxCell>
        <mxCell id="O0CgCwb5rhvd9dTBc7-d-36" value="10" style="rounded=0;whiteSpace=wrap;html=1;direction=south;fillColor=#f8cecc;strokeColor=#b85450;fontSize=20;fontStyle=1" parent="1" vertex="1">
          <mxGeometry x="240" y="480" width="25" height="50" as="geometry" />
        </mxCell>
        <mxCell id="O0CgCwb5rhvd9dTBc7-d-42" value="16" style="rounded=0;whiteSpace=wrap;html=1;direction=south;fillColor=#f8cecc;strokeColor=#b85450;fontSize=20;fontStyle=1" parent="1" vertex="1">
          <mxGeometry x="1010" y="80" width="25" height="50" as="geometry" />
        </mxCell>
        <mxCell id="O0CgCwb5rhvd9dTBc7-d-43" value="17" style="rounded=0;whiteSpace=wrap;html=1;direction=south;fillColor=#f8cecc;strokeColor=#b85450;fontSize=20;fontStyle=1" parent="1" vertex="1">
          <mxGeometry x="1010" y="120" width="25" height="50" as="geometry" />
        </mxCell>
        <mxCell id="O0CgCwb5rhvd9dTBc7-d-44" value="14" style="rounded=0;whiteSpace=wrap;html=1;direction=south;fillColor=#f8cecc;strokeColor=#b85450;fontSize=20;fontStyle=1" parent="1" vertex="1">
          <mxGeometry x="1010" y="-80" width="25" height="50" as="geometry" />
        </mxCell>
        <mxCell id="O0CgCwb5rhvd9dTBc7-d-45" value="15" style="rounded=0;whiteSpace=wrap;html=1;direction=south;fillColor=#f8cecc;strokeColor=#b85450;fontSize=20;fontStyle=1" parent="1" vertex="1">
          <mxGeometry x="1010" y="-40" width="25" height="50" as="geometry" />
        </mxCell>
        <mxCell id="O0CgCwb5rhvd9dTBc7-d-46" value="18" style="rounded=0;whiteSpace=wrap;html=1;direction=south;fillColor=#f8cecc;strokeColor=#b85450;fontSize=20;fontStyle=1" parent="1" vertex="1">
          <mxGeometry x="1010" y="250" width="25" height="50" as="geometry" />
        </mxCell>
        <mxCell id="O0CgCwb5rhvd9dTBc7-d-47" value="19" style="rounded=0;whiteSpace=wrap;html=1;direction=south;fillColor=#f8cecc;strokeColor=#b85450;fontSize=20;fontStyle=1" parent="1" vertex="1">
          <mxGeometry x="1010" y="290" width="25" height="50" as="geometry" />
        </mxCell>
        <mxCell id="O0CgCwb5rhvd9dTBc7-d-48" value="&lt;font style=&quot;font-size: 20px;&quot;&gt;1&lt;/font&gt;" style="rounded=0;whiteSpace=wrap;html=1;direction=south;fillColor=#f8cecc;strokeColor=#b85450;fontSize=20;fontStyle=1" parent="1" vertex="1">
          <mxGeometry x="370" y="-240" width="25" height="50" as="geometry" />
        </mxCell>
        <mxCell id="O0CgCwb5rhvd9dTBc7-d-49" value="&lt;font style=&quot;font-size: 20px;&quot;&gt;2&lt;/font&gt;" style="rounded=0;whiteSpace=wrap;html=1;direction=south;fillColor=#f8cecc;strokeColor=#b85450;fontSize=20;fontStyle=1" parent="1" vertex="1">
          <mxGeometry x="370" y="-200" width="25" height="50" as="geometry" />
        </mxCell>
        <mxCell id="O0CgCwb5rhvd9dTBc7-d-50" value="&lt;font style=&quot;font-size: 20px;&quot;&gt;3&lt;/font&gt;" style="rounded=0;whiteSpace=wrap;html=1;direction=south;fillColor=#f8cecc;strokeColor=#b85450;fontSize=20;fontStyle=1" parent="1" vertex="1">
          <mxGeometry x="370" y="-80" width="25" height="50" as="geometry" />
        </mxCell>
        <mxCell id="O0CgCwb5rhvd9dTBc7-d-51" value="4" style="rounded=0;whiteSpace=wrap;html=1;direction=south;fillColor=#f8cecc;strokeColor=#b85450;fontSize=20;fontStyle=1" parent="1" vertex="1">
          <mxGeometry x="370" y="-40" width="25" height="50" as="geometry" />
        </mxCell>
        <mxCell id="O0CgCwb5rhvd9dTBc7-d-53" value="21" style="rounded=0;whiteSpace=wrap;html=1;direction=west;fillColor=#f8cecc;strokeColor=#b85450;fontSize=20;" parent="1" vertex="1">
          <mxGeometry x="880" y="560" width="50" height="25" as="geometry" />
        </mxCell>
        <mxCell id="O0CgCwb5rhvd9dTBc7-d-54" value="5" style="rounded=0;whiteSpace=wrap;html=1;direction=south;fillColor=#f8cecc;strokeColor=#b85450;fontSize=20;fontStyle=1" parent="1" vertex="1">
          <mxGeometry x="370" y="80" width="25" height="50" as="geometry" />
        </mxCell>
        <mxCell id="O0CgCwb5rhvd9dTBc7-d-55" value="6" style="rounded=0;whiteSpace=wrap;html=1;direction=south;fillColor=#f8cecc;strokeColor=#b85450;fontSize=20;fontStyle=1" parent="1" vertex="1">
          <mxGeometry x="370" y="120" width="25" height="50" as="geometry" />
        </mxCell>
        <mxCell id="O0CgCwb5rhvd9dTBc7-d-56" value="7" style="rounded=0;whiteSpace=wrap;html=1;direction=south;fillColor=#f8cecc;strokeColor=#b85450;fontSize=20;fontStyle=1" parent="1" vertex="1">
          <mxGeometry x="370" y="250" width="25" height="50" as="geometry" />
        </mxCell>
        <mxCell id="O0CgCwb5rhvd9dTBc7-d-57" value="8" style="rounded=0;whiteSpace=wrap;html=1;direction=south;fillColor=#f8cecc;strokeColor=#b85450;fontSize=20;fontStyle=1" parent="1" vertex="1">
          <mxGeometry x="370" y="290" width="25" height="50" as="geometry" />
        </mxCell>
        <mxCell id="O0CgCwb5rhvd9dTBc7-d-59" value="13" style="rounded=0;whiteSpace=wrap;html=1;direction=south;fillColor=#f8cecc;strokeColor=#b85450;fontSize=20;fontStyle=1" parent="1" vertex="1">
          <mxGeometry x="1130" y="-520" width="25" height="50" as="geometry" />
        </mxCell>
        <mxCell id="O0CgCwb5rhvd9dTBc7-d-67" value="22" style="rounded=0;whiteSpace=wrap;html=1;direction=south;fillColor=#f8cecc;strokeColor=#b85450;fontSize=20;fontStyle=1" parent="1" vertex="1">
          <mxGeometry x="1130" y="630" width="25" height="50" as="geometry" />
        </mxCell>
        <mxCell id="O0CgCwb5rhvd9dTBc7-d-68" value="20" style="rounded=0;whiteSpace=wrap;html=1;direction=south;fillColor=#f8cecc;strokeColor=#b85450;fontSize=20;fontStyle=1" parent="1" vertex="1">
          <mxGeometry x="1020" y="440" width="25" height="50" as="geometry" />
        </mxCell>
      </root>
    </mxGraphModel>
  </diagram>
</mxfile>
